<svg width="18" height="18" viewBox="0 0 18 18" fill="none" xmlns="http://www.w3.org/2000/svg">
<g id="Back">
<path id="Vector" d="M5.09998 9.75001L7.27498 11.925C7.41248 12.0625 7.48123 12.2375 7.48123 12.45C7.48123 12.6625 7.41248 12.8375 7.27498 12.975C7.13748 13.1125 6.96248 13.1813 6.74998 13.1813C6.53748 13.1813 6.36248 13.1125 6.22498 12.975L2.77498 9.52501C2.69998 9.45001 2.64685 9.36876 2.6156 9.28126C2.58435 9.19376 2.56873 9.10001 2.56873 9.00001C2.56873 8.90001 2.58435 8.80626 2.6156 8.71876C2.64685 8.63126 2.69998 8.55001 2.77498 8.47501L6.22498 5.02501C6.36248 4.88751 6.53748 4.81876 6.74998 4.81876C6.96248 4.81876 7.13748 4.88751 7.27498 5.02501C7.41248 5.16251 7.48123 5.33751 7.48123 5.55001C7.48123 5.76251 7.41248 5.93751 7.27498 6.07501L5.09998 8.25001H15C15.2125 8.25001 15.3906 8.32188 15.5344 8.46563C15.6781 8.60938 15.75 8.78751 15.75 9.00001C15.75 9.21251 15.6781 9.39063 15.5344 9.53438C15.3906 9.67813 15.2125 9.75001 15 9.75001H5.09998Z" fill="#7C8DB0"/>
</g>
</svg>
