<svg width="24" height="25" viewBox="0 0 24 25" fill="none" xmlns="http://www.w3.org/2000/svg">
<g id="Banking">
<rect width="24" height="24" transform="translate(0 0.5)" fill="white"/>
<path id="Vector" d="M5 16.5V11.5C5 11.2167 5.09583 10.9792 5.2875 10.7875C5.47917 10.5958 5.71667 10.5 6 10.5C6.28333 10.5 6.52083 10.5958 6.7125 10.7875C6.90417 10.9792 7 11.2167 7 11.5V16.5C7 16.7833 6.90417 17.0208 6.7125 17.2125C6.52083 17.4042 6.28333 17.5 6 17.5C5.71667 17.5 5.47917 17.4042 5.2875 17.2125C5.09583 17.0208 5 16.7833 5 16.5ZM11 16.5V11.5C11 11.2167 11.0958 10.9792 11.2875 10.7875C11.4792 10.5958 11.7167 10.5 12 10.5C12.2833 10.5 12.5208 10.5958 12.7125 10.7875C12.9042 10.9792 13 11.2167 13 11.5V16.5C13 16.7833 12.9042 17.0208 12.7125 17.2125C12.5208 17.4042 12.2833 17.5 12 17.5C11.7167 17.5 11.4792 17.4042 11.2875 17.2125C11.0958 17.0208 11 16.7833 11 16.5ZM3 21.5C2.71667 21.5 2.47917 21.4042 2.2875 21.2125C2.09583 21.0208 2 20.7833 2 20.5C2 20.2167 2.09583 19.9792 2.2875 19.7875C2.47917 19.5958 2.71667 19.5 3 19.5H21C21.2833 19.5 21.5208 19.5958 21.7125 19.7875C21.9042 19.9792 22 20.2167 22 20.5C22 20.7833 21.9042 21.0208 21.7125 21.2125C21.5208 21.4042 21.2833 21.5 21 21.5H3ZM17 16.5V11.5C17 11.2167 17.0958 10.9792 17.2875 10.7875C17.4792 10.5958 17.7167 10.5 18 10.5C18.2833 10.5 18.5208 10.5958 18.7125 10.7875C18.9042 10.9792 19 11.2167 19 11.5V16.5C19 16.7833 18.9042 17.0208 18.7125 17.2125C18.5208 17.4042 18.2833 17.5 18 17.5C17.7167 17.5 17.4792 17.4042 17.2875 17.2125C17.0958 17.0208 17 16.7833 17 16.5ZM21 8.5H2.9C2.65 8.5 2.4375 8.4125 2.2625 8.2375C2.0875 8.0625 2 7.85 2 7.6V7.05C2 6.86667 2.04583 6.70833 2.1375 6.575C2.22917 6.44167 2.35 6.33333 2.5 6.25L11.1 1.95C11.3833 1.81667 11.6833 1.75 12 1.75C12.3167 1.75 12.6167 1.81667 12.9 1.95L21.45 6.225C21.6333 6.30833 21.7708 6.43333 21.8625 6.6C21.9542 6.76667 22 6.94167 22 7.125V7.5C22 7.78333 21.9042 8.02083 21.7125 8.2125C21.5208 8.40417 21.2833 8.5 21 8.5ZM6.45 6.5H17.55L12 3.75L6.45 6.5Z" fill="#A1B0CC"/>
</g>
</svg>
