<svg width="24" height="25" viewBox="0 0 24 25" fill="none" xmlns="http://www.w3.org/2000/svg">
<g id="Chart">
<rect width="24" height="24" transform="translate(0 0.5)" fill="white"/>
<path id="Vector" d="M5 21.5C4.45 21.5 3.97917 21.3042 3.5875 20.9125C3.19583 20.5208 3 20.05 3 19.5V4.5C3 4.21667 3.09583 3.97917 3.2875 3.7875C3.47917 3.59583 3.71667 3.5 4 3.5C4.28333 3.5 4.52083 3.59583 4.7125 3.7875C4.90417 3.97917 5 4.21667 5 4.5V19.5H20C20.2833 19.5 20.5208 19.5958 20.7125 19.7875C20.9042 19.9792 21 20.2167 21 20.5C21 20.7833 20.9042 21.0208 20.7125 21.2125C20.5208 21.4042 20.2833 21.5 20 21.5H5ZM7 18.5C6.71667 18.5 6.47917 18.4042 6.2875 18.2125C6.09583 18.0208 6 17.7833 6 17.5V10.5C6 10.2167 6.09583 9.97917 6.2875 9.7875C6.47917 9.59583 6.71667 9.5 7 9.5H9C9.28333 9.5 9.52083 9.59583 9.7125 9.7875C9.90417 9.97917 10 10.2167 10 10.5V17.5C10 17.7833 9.90417 18.0208 9.7125 18.2125C9.52083 18.4042 9.28333 18.5 9 18.5H7ZM12 18.5C11.7167 18.5 11.4792 18.4042 11.2875 18.2125C11.0958 18.0208 11 17.7833 11 17.5V5.5C11 5.21667 11.0958 4.97917 11.2875 4.7875C11.4792 4.59583 11.7167 4.5 12 4.5H14C14.2833 4.5 14.5208 4.59583 14.7125 4.7875C14.9042 4.97917 15 5.21667 15 5.5V17.5C15 17.7833 14.9042 18.0208 14.7125 18.2125C14.5208 18.4042 14.2833 18.5 14 18.5H12ZM17 18.5C16.7167 18.5 16.4792 18.4042 16.2875 18.2125C16.0958 18.0208 16 17.7833 16 17.5V14.5C16 14.2167 16.0958 13.9792 16.2875 13.7875C16.4792 13.5958 16.7167 13.5 17 13.5H19C19.2833 13.5 19.5208 13.5958 19.7125 13.7875C19.9042 13.9792 20 14.2167 20 14.5V17.5C20 17.7833 19.9042 18.0208 19.7125 18.2125C19.5208 18.4042 19.2833 18.5 19 18.5H17Z" fill="#A1B0CC"/>
</g>
</svg>
