<svg width="24" height="25" viewBox="0 0 24 25" fill="none" xmlns="http://www.w3.org/2000/svg">
<g id="Database">
<rect width="24" height="24" transform="translate(0 0.5)" fill="white"/>
<path id="Vector" d="M12 21.5C9.48333 21.5 7.35417 21.1125 5.6125 20.3375C3.87083 19.5625 3 18.6167 3 17.5V7.5C3 6.4 3.87917 5.45833 5.6375 4.675C7.39583 3.89167 9.51667 3.5 12 3.5C14.4833 3.5 16.6042 3.89167 18.3625 4.675C20.1208 5.45833 21 6.4 21 7.5V17.5C21 18.6167 20.1292 19.5625 18.3875 20.3375C16.6458 21.1125 14.5167 21.5 12 21.5ZM12 9.525C13.4833 9.525 14.975 9.3125 16.475 8.8875C17.975 8.4625 18.8167 8.00833 19 7.525C18.8167 7.04167 17.9792 6.58333 16.4875 6.15C14.9958 5.71667 13.5 5.5 12 5.5C10.4833 5.5 8.99583 5.7125 7.5375 6.1375C6.07917 6.5625 5.23333 7.025 5 7.525C5.23333 8.025 6.07917 8.48333 7.5375 8.9C8.99583 9.31667 10.4833 9.525 12 9.525ZM12 14.5C12.7 14.5 13.375 14.4667 14.025 14.4C14.675 14.3333 15.2958 14.2375 15.8875 14.1125C16.4792 13.9875 17.0375 13.8333 17.5625 13.65C18.0875 13.4667 18.5667 13.2583 19 13.025V10.025C18.5667 10.2583 18.0875 10.4667 17.5625 10.65C17.0375 10.8333 16.4792 10.9875 15.8875 11.1125C15.2958 11.2375 14.675 11.3333 14.025 11.4C13.375 11.4667 12.7 11.5 12 11.5C11.3 11.5 10.6167 11.4667 9.95 11.4C9.28333 11.3333 8.65417 11.2375 8.0625 11.1125C7.47083 10.9875 6.91667 10.8333 6.4 10.65C5.88333 10.4667 5.41667 10.2583 5 10.025V13.025C5.41667 13.2583 5.88333 13.4667 6.4 13.65C6.91667 13.8333 7.47083 13.9875 8.0625 14.1125C8.65417 14.2375 9.28333 14.3333 9.95 14.4C10.6167 14.4667 11.3 14.5 12 14.5ZM12 19.5C12.7667 19.5 13.5458 19.4417 14.3375 19.325C15.1292 19.2083 15.8583 19.0542 16.525 18.8625C17.1917 18.6708 17.75 18.4542 18.2 18.2125C18.65 17.9708 18.9167 17.725 19 17.475V15.025C18.5667 15.2583 18.0875 15.4667 17.5625 15.65C17.0375 15.8333 16.4792 15.9875 15.8875 16.1125C15.2958 16.2375 14.675 16.3333 14.025 16.4C13.375 16.4667 12.7 16.5 12 16.5C11.3 16.5 10.6167 16.4667 9.95 16.4C9.28333 16.3333 8.65417 16.2375 8.0625 16.1125C7.47083 15.9875 6.91667 15.8333 6.4 15.65C5.88333 15.4667 5.41667 15.2583 5 15.025V17.5C5.08333 17.75 5.34583 17.9917 5.7875 18.225C6.22917 18.4583 6.78333 18.6708 7.45 18.8625C8.11667 19.0542 8.85 19.2083 9.65 19.325C10.45 19.4417 11.2333 19.5 12 19.5Z" fill="#A1B0CC"/>
</g>
</svg>
