<svg width="18" height="18" viewBox="0 0 18 18" fill="none" xmlns="http://www.w3.org/2000/svg">
<g id="Next Arrow">
<path id="Vector" d="M13.6313 9.75001H2.25C2.0375 9.75001 1.85938 9.67813 1.71563 9.53438C1.57188 9.39063 1.5 9.21251 1.5 9.00001C1.5 8.78751 1.57188 8.60938 1.71563 8.46563C1.85938 8.32188 2.0375 8.25001 2.25 8.25001H13.6313L10.725 5.32501C10.5875 5.18751 10.5156 5.01563 10.5094 4.80938C10.5031 4.60313 10.575 4.42501 10.725 4.27501C10.8625 4.13751 11.0375 4.06876 11.25 4.06876C11.4625 4.06876 11.6375 4.13751 11.775 4.27501L15.975 8.47501C16.05 8.55001 16.1031 8.63126 16.1344 8.71876C16.1656 8.80626 16.1813 8.90001 16.1813 9.00001C16.1813 9.10001 16.1656 9.19376 16.1344 9.28126C16.1031 9.36876 16.05 9.45001 15.975 9.52501L11.775 13.725C11.6375 13.8625 11.4656 13.9313 11.2594 13.9313C11.0531 13.9313 10.875 13.8625 10.725 13.725C10.575 13.575 10.5 13.3969 10.5 13.1906C10.5 12.9844 10.575 12.8063 10.725 12.6563L13.6313 9.75001Z" fill="#605DEC"/>
</g>
</svg>
